%TF.GenerationSoftware,KiCad,Pcbnew,(5.1.6-0-10_14)*%
%TF.CreationDate,2020-11-27T13:54:23+01:00*%
%TF.ProjectId,Power_supply,506f7765-725f-4737-9570-706c792e6b69,rev?*%
%TF.SameCoordinates,Original*%
%TF.FileFunction,Legend,Bot*%
%TF.FilePolarity,Positive*%
%FSLAX46Y46*%
G04 Gerber Fmt 4.6, Leading zero omitted, Abs format (unit mm)*
G04 Created by KiCad (PCBNEW (5.1.6-0-10_14)) date 2020-11-27 13:54:23*
%MOMM*%
%LPD*%
G01*
G04 APERTURE LIST*
%ADD10C,0.250000*%
G04 APERTURE END LIST*
D10*
X119728571Y-123369523D02*
X119776190Y-123512380D01*
X119823809Y-123560000D01*
X119919047Y-123607619D01*
X120061904Y-123607619D01*
X120157142Y-123560000D01*
X120204761Y-123512380D01*
X120252380Y-123417142D01*
X120252380Y-123036190D01*
X119252380Y-123036190D01*
X119252380Y-123369523D01*
X119300000Y-123464761D01*
X119347619Y-123512380D01*
X119442857Y-123560000D01*
X119538095Y-123560000D01*
X119633333Y-123512380D01*
X119680952Y-123464761D01*
X119728571Y-123369523D01*
X119728571Y-123036190D01*
X120252380Y-124036190D02*
X119585714Y-124036190D01*
X119776190Y-124036190D02*
X119680952Y-124083809D01*
X119633333Y-124131428D01*
X119585714Y-124226666D01*
X119585714Y-124321904D01*
X120204761Y-125036190D02*
X120252380Y-124940952D01*
X120252380Y-124750476D01*
X120204761Y-124655238D01*
X120109523Y-124607619D01*
X119728571Y-124607619D01*
X119633333Y-124655238D01*
X119585714Y-124750476D01*
X119585714Y-124940952D01*
X119633333Y-125036190D01*
X119728571Y-125083809D01*
X119823809Y-125083809D01*
X119919047Y-124607619D01*
X120252380Y-125940952D02*
X119728571Y-125940952D01*
X119633333Y-125893333D01*
X119585714Y-125798095D01*
X119585714Y-125607619D01*
X119633333Y-125512380D01*
X120204761Y-125940952D02*
X120252380Y-125845714D01*
X120252380Y-125607619D01*
X120204761Y-125512380D01*
X120109523Y-125464761D01*
X120014285Y-125464761D01*
X119919047Y-125512380D01*
X119871428Y-125607619D01*
X119871428Y-125845714D01*
X119823809Y-125940952D01*
X120252380Y-126845714D02*
X119252380Y-126845714D01*
X120204761Y-126845714D02*
X120252380Y-126750476D01*
X120252380Y-126560000D01*
X120204761Y-126464761D01*
X120157142Y-126417142D01*
X120061904Y-126369523D01*
X119776190Y-126369523D01*
X119680952Y-126417142D01*
X119633333Y-126464761D01*
X119585714Y-126560000D01*
X119585714Y-126750476D01*
X119633333Y-126845714D01*
X120252380Y-127321904D02*
X119252380Y-127321904D01*
X119633333Y-127321904D02*
X119585714Y-127417142D01*
X119585714Y-127607619D01*
X119633333Y-127702857D01*
X119680952Y-127750476D01*
X119776190Y-127798095D01*
X120061904Y-127798095D01*
X120157142Y-127750476D01*
X120204761Y-127702857D01*
X120252380Y-127607619D01*
X120252380Y-127417142D01*
X120204761Y-127321904D01*
X120252380Y-128369523D02*
X120204761Y-128274285D01*
X120157142Y-128226666D01*
X120061904Y-128179047D01*
X119776190Y-128179047D01*
X119680952Y-128226666D01*
X119633333Y-128274285D01*
X119585714Y-128369523D01*
X119585714Y-128512380D01*
X119633333Y-128607619D01*
X119680952Y-128655238D01*
X119776190Y-128702857D01*
X120061904Y-128702857D01*
X120157142Y-128655238D01*
X120204761Y-128607619D01*
X120252380Y-128512380D01*
X120252380Y-128369523D01*
X120252380Y-129560000D02*
X119728571Y-129560000D01*
X119633333Y-129512380D01*
X119585714Y-129417142D01*
X119585714Y-129226666D01*
X119633333Y-129131428D01*
X120204761Y-129560000D02*
X120252380Y-129464761D01*
X120252380Y-129226666D01*
X120204761Y-129131428D01*
X120109523Y-129083809D01*
X120014285Y-129083809D01*
X119919047Y-129131428D01*
X119871428Y-129226666D01*
X119871428Y-129464761D01*
X119823809Y-129560000D01*
X120252380Y-130036190D02*
X119585714Y-130036190D01*
X119776190Y-130036190D02*
X119680952Y-130083809D01*
X119633333Y-130131428D01*
X119585714Y-130226666D01*
X119585714Y-130321904D01*
X120252380Y-131083809D02*
X119252380Y-131083809D01*
X120204761Y-131083809D02*
X120252380Y-130988571D01*
X120252380Y-130798095D01*
X120204761Y-130702857D01*
X120157142Y-130655238D01*
X120061904Y-130607619D01*
X119776190Y-130607619D01*
X119680952Y-130655238D01*
X119633333Y-130702857D01*
X119585714Y-130798095D01*
X119585714Y-130988571D01*
X119633333Y-131083809D01*
X122002380Y-122298095D02*
X121002380Y-122298095D01*
X121002380Y-122679047D01*
X121050000Y-122774285D01*
X121097619Y-122821904D01*
X121192857Y-122869523D01*
X121335714Y-122869523D01*
X121430952Y-122821904D01*
X121478571Y-122774285D01*
X121526190Y-122679047D01*
X121526190Y-122298095D01*
X122002380Y-123440952D02*
X121954761Y-123345714D01*
X121907142Y-123298095D01*
X121811904Y-123250476D01*
X121526190Y-123250476D01*
X121430952Y-123298095D01*
X121383333Y-123345714D01*
X121335714Y-123440952D01*
X121335714Y-123583809D01*
X121383333Y-123679047D01*
X121430952Y-123726666D01*
X121526190Y-123774285D01*
X121811904Y-123774285D01*
X121907142Y-123726666D01*
X121954761Y-123679047D01*
X122002380Y-123583809D01*
X122002380Y-123440952D01*
X121335714Y-124107619D02*
X122002380Y-124298095D01*
X121526190Y-124488571D01*
X122002380Y-124679047D01*
X121335714Y-124869523D01*
X121954761Y-125631428D02*
X122002380Y-125536190D01*
X122002380Y-125345714D01*
X121954761Y-125250476D01*
X121859523Y-125202857D01*
X121478571Y-125202857D01*
X121383333Y-125250476D01*
X121335714Y-125345714D01*
X121335714Y-125536190D01*
X121383333Y-125631428D01*
X121478571Y-125679047D01*
X121573809Y-125679047D01*
X121669047Y-125202857D01*
X122002380Y-126107619D02*
X121335714Y-126107619D01*
X121526190Y-126107619D02*
X121430952Y-126155238D01*
X121383333Y-126202857D01*
X121335714Y-126298095D01*
X121335714Y-126393333D01*
X121954761Y-127440952D02*
X122002380Y-127536190D01*
X122002380Y-127726666D01*
X121954761Y-127821904D01*
X121859523Y-127869523D01*
X121811904Y-127869523D01*
X121716666Y-127821904D01*
X121669047Y-127726666D01*
X121669047Y-127583809D01*
X121621428Y-127488571D01*
X121526190Y-127440952D01*
X121478571Y-127440952D01*
X121383333Y-127488571D01*
X121335714Y-127583809D01*
X121335714Y-127726666D01*
X121383333Y-127821904D01*
X121335714Y-128726666D02*
X122002380Y-128726666D01*
X121335714Y-128298095D02*
X121859523Y-128298095D01*
X121954761Y-128345714D01*
X122002380Y-128440952D01*
X122002380Y-128583809D01*
X121954761Y-128679047D01*
X121907142Y-128726666D01*
X121335714Y-129202857D02*
X122335714Y-129202857D01*
X121383333Y-129202857D02*
X121335714Y-129298095D01*
X121335714Y-129488571D01*
X121383333Y-129583809D01*
X121430952Y-129631428D01*
X121526190Y-129679047D01*
X121811904Y-129679047D01*
X121907142Y-129631428D01*
X121954761Y-129583809D01*
X122002380Y-129488571D01*
X122002380Y-129298095D01*
X121954761Y-129202857D01*
X121335714Y-130107619D02*
X122335714Y-130107619D01*
X121383333Y-130107619D02*
X121335714Y-130202857D01*
X121335714Y-130393333D01*
X121383333Y-130488571D01*
X121430952Y-130536190D01*
X121526190Y-130583809D01*
X121811904Y-130583809D01*
X121907142Y-130536190D01*
X121954761Y-130488571D01*
X122002380Y-130393333D01*
X122002380Y-130202857D01*
X121954761Y-130107619D01*
X122002380Y-131155238D02*
X121954761Y-131060000D01*
X121859523Y-131012380D01*
X121002380Y-131012380D01*
X121335714Y-131440952D02*
X122002380Y-131679047D01*
X121335714Y-131917142D02*
X122002380Y-131679047D01*
X122240476Y-131583809D01*
X122288095Y-131536190D01*
X122335714Y-131440952D01*
X123085714Y-125631428D02*
X123752380Y-125869523D01*
X123085714Y-126107619D01*
X123752380Y-127012380D02*
X123752380Y-126440952D01*
X123752380Y-126726666D02*
X122752380Y-126726666D01*
X122895238Y-126631428D01*
X122990476Y-126536190D01*
X123038095Y-126440952D01*
X123657142Y-127440952D02*
X123704761Y-127488571D01*
X123752380Y-127440952D01*
X123704761Y-127393333D01*
X123657142Y-127440952D01*
X123752380Y-127440952D01*
X122752380Y-128107619D02*
X122752380Y-128202857D01*
X122800000Y-128298095D01*
X122847619Y-128345714D01*
X122942857Y-128393333D01*
X123133333Y-128440952D01*
X123371428Y-128440952D01*
X123561904Y-128393333D01*
X123657142Y-128345714D01*
X123704761Y-128298095D01*
X123752380Y-128202857D01*
X123752380Y-128107619D01*
X123704761Y-128012380D01*
X123657142Y-127964761D01*
X123561904Y-127917142D01*
X123371428Y-127869523D01*
X123133333Y-127869523D01*
X122942857Y-127917142D01*
X122847619Y-127964761D01*
X122800000Y-128012380D01*
X122752380Y-128107619D01*
M02*
