M48
; DRILL file {KiCad (5.1.6-0-10_14)} date Friday, November 27, 2020 at 01:57:49 PM
; FORMAT={-:-/ absolute / inch / decimal}
; #@! TF.CreationDate,2020-11-27T13:57:49+01:00
; #@! TF.GenerationSoftware,Kicad,Pcbnew,(5.1.6-0-10_14)
; #@! TF.FileFunction,Plated,1,2,PTH
FMAT,2
INCH
T1C0.0315
T2C0.0354
T3C0.0394
T4C0.0433
T5C0.0630
%
G90
G05
T1
X5.2063Y-3.6205
X5.2063Y-3.9205
X5.4067Y-4.8634
X5.4067Y-5.1634
X5.2295Y-3.3657
X5.328Y-3.3657
T2
X5.3904Y-3.7772
X5.4904Y-3.7772
X5.4406Y-4.0941
X5.4406Y-4.1925
X5.4406Y-4.2909
X5.3904Y-4.6173
X5.4904Y-4.6173
T3
X4.7764Y-3.4343
X4.9732Y-3.4343
X5.6614Y-3.2858
X5.6614Y-3.3858
X5.7614Y-3.2858
X5.7614Y-3.3858
X5.6614Y-5.0614
X5.6614Y-5.1614
X5.7614Y-5.0614
X5.7614Y-5.1614
T4
X4.7346Y-4.2613
X5.1346Y-4.2613
X4.7346Y-4.078
X5.1346Y-4.078
X4.787Y-3.8559
X4.887Y-3.8559
X4.987Y-3.8559
X4.7346Y-4.628
X5.1346Y-4.628
X4.7346Y-4.4446
X5.1346Y-4.4446
T5
X4.9803Y-4.9894
X5.0984Y-5.1744
X5.2165Y-4.9894
T0
M30
